<svg xmlns="http://www.w3.org/2000/svg" viewBox="0 0 2754 644">
  <path fill="#0a1f4d" fill-rule="evenodd" d="M204.00,604.41 C183.19,601.40 149.41,590.21 143.18,584.26 C142.45,583.57 141.28,583.00 140.57,583.00 C139.87,583.00 137.22,581.42 134.70,579.50 C132.18,577.58 129.91,576.00 129.64,576.00 C129.38,576.00 128.12,575.12 126.83,574.04 C125.55,572.96 120.83,569.02 116.35,565.29 C111.87,561.56 105.41,555.12 102.00,551.00 C98.58,546.88 95.17,543.01 94.41,542.40 C93.65,541.80 93.25,541.08 93.52,540.81 C93.79,540.54 93.11,539.50 92.01,538.51 C90.20,536.87 90.00,536.86 90.00,538.35 C90.00,539.26 90.44,540.00 90.98,540.00 C91.61,540.00 91.60,540.81 90.95,542.25 C90.39,543.49 89.39,556.40 88.72,570.95 L87.50,597.40 L47.73,597.34 C25.85,597.31 7.67,597.00 7.33,596.66 C6.98,596.32 6.73,591.87 6.76,586.77 C6.79,581.67 6.86,449.59 6.91,293.25 L7.00,9.00 L50.00,9.00 L93.00,9.00 L93.16,120.75 C93.25,182.21 93.25,233.40 93.16,234.50 C93.01,236.45 93.05,236.44 94.75,234.38 C95.71,233.22 97.84,230.52 99.48,228.38 C108.13,217.12 129.58,198.38 140.99,192.12 C149.43,187.49 163.38,180.92 168.63,179.10 C203.20,167.13 248.88,165.12 284.04,174.02 C321.75,183.58 349.76,199.96 375.75,227.65 C387.04,239.68 386.40,238.90 392.44,248.03 C395.16,252.14 397.70,255.72 398.08,256.00 C398.46,256.27 399.50,258.07 400.40,260.00 C401.29,261.93 403.33,265.98 404.94,269.00 C411.68,281.65 415.35,290.25 419.46,303.00 C426.05,323.44 428.01,332.77 431.55,360.46 C432.78,370.08 432.11,411.95 430.60,420.00 C430.22,422.06 428.48,432.92 426.45,446.00 C425.07,454.86 417.57,478.70 413.38,487.51 C412.07,490.27 411.00,492.79 411.00,493.12 C411.00,494.49 399.33,515.19 394.16,523.00 C387.40,533.19 372.90,550.38 365.70,556.73 C362.84,559.26 360.27,561.61 360.00,561.97 C359.18,563.03 342.09,576.00 341.51,576.00 C341.22,576.00 337.15,578.48 332.46,581.50 C327.77,584.52 323.56,587.00 323.11,587.00 C322.65,587.00 318.96,588.53 314.89,590.41 C301.28,596.69 281.20,602.27 264.02,604.56 C250.65,606.34 216.76,606.26 204.00,604.41 Z M638.00,605.31 C617.94,602.62 611.31,601.39 600.84,598.41 C594.05,596.48 587.08,594.25 585.35,593.45 C583.62,592.65 581.82,591.99 581.35,591.98 C580.10,591.95 561.05,582.11 560.00,580.95 C559.73,580.64 557.70,579.32 555.50,578.01 C548.91,574.08 546.28,571.92 536.62,562.50 C522.39,548.63 516.29,539.44 508.71,520.45 C501.68,502.84 500.50,495.85 500.50,472.00 C500.50,451.74 501.56,442.51 505.22,431.00 C507.51,423.80 513.59,410.98 517.16,405.85 C518.17,404.39 519.00,402.89 519.00,402.51 C519.00,399.36 541.89,376.71 548.67,373.15 C549.87,372.53 551.44,371.43 552.17,370.72 C553.35,369.57 559.72,366.06 568.50,361.73 C597.73,347.30 638.99,340.25 687.00,341.49 C698.83,341.79 710.52,342.23 713.00,342.47 C736.92,344.79 758.01,347.77 773.50,351.02 C776.25,351.59 779.62,352.22 781.00,352.41 C782.38,352.60 785.67,353.33 788.31,354.02 C791.10,354.74 793.48,354.90 793.97,354.39 C794.83,353.47 791.49,334.26 788.56,323.28 C786.37,315.06 779.24,298.93 774.64,291.76 C761.13,270.72 736.68,253.26 712.00,247.01 C709.52,246.38 706.15,245.47 704.50,244.98 C694.22,241.92 666.03,240.80 651.70,242.88 C642.64,244.19 624.00,249.08 624.00,250.15 C624.00,250.62 623.25,251.00 622.34,251.00 C619.64,251.00 606.46,257.63 598.60,262.93 C594.59,265.64 586.05,272.67 579.60,278.56 L567.89,289.27 L564.80,286.38 C563.10,284.80 559.87,281.48 557.61,279.00 C551.91,272.76 542.18,262.35 538.04,258.07 C536.14,256.11 530.69,250.04 525.93,244.58 L517.27,234.66 L519.10,231.58 C524.73,222.09 552.55,199.68 569.93,190.62 C572.91,189.07 576.06,187.41 576.93,186.95 C579.06,185.81 590.05,181.65 598.00,178.98 C611.02,174.61 624.04,171.90 645.50,169.09 C655.26,167.81 698.13,167.77 706.00,169.04 C733.77,173.49 747.37,176.18 751.50,178.05 C752.60,178.55 755.75,179.68 758.50,180.58 C763.04,182.05 774.02,186.62 783.00,190.78 C787.55,192.89 805.98,204.06 808.10,206.00 C809.01,206.82 811.24,208.62 813.07,210.00 C841.17,231.16 862.61,262.55 873.84,299.00 C879.98,318.93 881.14,324.68 883.48,347.14 C884.78,359.56 884.97,379.68 884.75,479.64 L884.50,597.50 L842.50,597.49 L800.50,597.49 L799.85,585.49 C799.49,578.90 798.92,568.15 798.58,561.62 C797.72,545.31 797.47,545.04 790.32,552.88 C782.09,561.89 769.72,572.37 760.50,578.15 C729.35,597.64 697.52,606.19 657.50,605.81 C648.15,605.72 639.38,605.49 638.00,605.31 Z M2332.92,605.63 C2332.69,605.43 2328.73,604.97 2324.12,604.61 C2319.52,604.25 2315.42,603.76 2315.03,603.52 C2314.64,603.28 2311.88,602.65 2308.91,602.12 C2289.44,598.69 2270.92,591.37 2253.50,580.22 C2241.40,572.47 2227.59,560.21 2221.00,551.37 C2219.07,548.79 2216.49,545.68 2215.25,544.47 C2214.01,543.26 2213.00,541.72 2213.00,541.04 C2213.00,540.36 2212.17,538.61 2211.17,537.15 C2208.10,532.73 2202.11,519.17 2200.04,512.00 C2199.33,509.52 2198.15,505.70 2197.43,503.50 C2196.71,501.30 2195.85,495.68 2195.52,491.00 C2195.18,486.32 2194.66,479.99 2194.36,476.92 C2192.71,460.09 2199.54,424.63 2206.29,414.99 C2207.23,413.65 2208.00,412.07 2208.00,411.47 C2208.00,410.88 2209.31,408.62 2210.90,406.45 C2212.50,404.28 2213.88,402.05 2213.97,401.50 C2214.51,398.15 2235.35,377.64 2244.61,371.36 C2250.82,367.14 2271.55,356.97 2277.00,355.47 C2278.38,355.09 2280.85,354.19 2282.50,353.48 C2289.36,350.50 2314.85,344.96 2328.00,343.59 C2331.03,343.27 2336.43,342.69 2340.00,342.30 C2350.37,341.15 2399.23,341.53 2414.00,342.87 C2428.63,344.19 2455.50,348.13 2466.14,350.51 C2469.80,351.33 2474.09,352.00 2475.69,352.00 C2477.29,352.00 2479.03,352.40 2479.55,352.90 C2480.07,353.39 2482.31,353.96 2484.52,354.15 L2488.55,354.51 L2487.87,347.50 C2486.50,333.45 2480.88,313.94 2474.76,302.00 C2469.57,291.86 2468.62,290.29 2466.14,287.65 C2464.96,286.40 2464.00,285.01 2464.00,284.56 C2464.00,283.53 2451.86,271.00 2450.85,271.00 C2450.44,271.00 2448.61,269.48 2446.80,267.61 C2442.91,263.62 2436.18,259.32 2426.50,254.65 C2415.14,249.17 2412.76,248.21 2407.50,246.99 C2404.75,246.35 2401.38,245.42 2400.00,244.92 C2394.45,242.90 2376.81,241.21 2363.50,241.42 C2346.61,241.69 2338.18,243.22 2318.12,249.66 C2306.22,253.48 2287.66,265.04 2276.29,275.73 C2264.79,286.53 2261.98,289.00 2261.18,289.00 C2260.77,289.00 2257.07,285.30 2252.96,280.77 C2238.08,264.36 2222.54,247.44 2219.91,244.78 C2218.43,243.29 2215.82,240.30 2214.11,238.13 L2210.99,234.20 L2215.36,228.85 C2219.70,223.53 2235.70,208.00 2236.83,208.00 C2237.16,208.00 2238.35,207.09 2239.46,205.97 C2248.60,196.87 2282.95,180.49 2303.50,175.43 C2305.15,175.02 2306.95,174.54 2307.50,174.37 C2308.88,173.92 2316.77,172.30 2321.00,171.59 C2322.93,171.27 2330.57,170.28 2338.00,169.39 C2354.66,167.40 2394.15,167.95 2409.00,170.38 C2414.22,171.23 2420.30,172.21 2422.50,172.56 C2432.67,174.17 2451.30,179.67 2463.00,184.52 C2479.24,191.26 2500.11,203.51 2509.51,211.83 C2511.17,213.30 2514.10,215.85 2516.01,217.50 C2520.26,221.16 2533.56,235.36 2537.00,239.90 C2538.38,241.72 2540.50,244.34 2541.72,245.72 C2542.94,247.09 2544.21,249.07 2544.54,250.11 C2544.87,251.15 2545.55,252.00 2546.07,252.00 C2546.58,252.00 2547.00,252.44 2547.00,252.98 C2547.00,253.52 2548.72,256.79 2550.81,260.23 C2552.91,263.68 2555.66,268.75 2556.92,271.50 C2558.19,274.25 2560.28,278.75 2561.58,281.50 C2567.60,294.28 2574.87,323.57 2577.09,344.00 C2578.30,355.15 2579.22,546.88 2578.22,580.20 L2577.69,597.90 L2536.38,597.91 L2495.08,597.92 L2494.58,594.71 C2494.30,592.95 2493.57,581.60 2492.95,569.50 C2492.32,557.40 2491.47,547.14 2491.05,546.69 C2490.63,546.25 2488.98,547.28 2487.39,549.00 C2479.86,557.11 2476.98,559.82 2469.45,565.93 C2457.83,575.34 2452.79,578.67 2441.50,584.41 C2436.00,587.21 2431.27,589.80 2430.99,590.17 C2430.71,590.54 2429.13,591.17 2427.49,591.56 C2425.85,591.96 2423.19,592.94 2421.59,593.75 C2414.94,597.11 2391.90,602.70 2377.04,604.56 C2366.96,605.83 2334.04,606.62 2332.92,605.63 Z M1803.75,599.26 C1807.19,599.06 1812.81,599.06 1816.25,599.26 C1819.69,599.45 1816.88,599.61 1810.00,599.61 C1803.12,599.61 1800.31,599.45 1803.75,599.26 Z M1850.75,599.26 C1854.19,599.06 1859.81,599.06 1863.25,599.26 C1866.69,599.45 1863.88,599.61 1857.00,599.61 C1850.12,599.61 1847.31,599.45 1850.75,599.26 Z M1944.75,599.26 C1948.19,599.06 1953.81,599.06 1957.25,599.26 C1960.69,599.45 1957.88,599.61 1951.00,599.61 C1944.12,599.61 1941.31,599.45 1944.75,599.26 Z M1991.29,599.26 C1995.03,599.06 2000.88,599.07 2004.29,599.26 C2007.71,599.46 2004.65,599.61 1997.50,599.61 C1990.35,599.61 1987.56,599.45 1991.29,599.26 Z M2108.75,599.26 C2112.19,599.06 2117.81,599.06 2121.25,599.26 C2124.69,599.45 2121.88,599.61 2115.00,599.61 C2108.12,599.61 2105.31,599.45 2108.75,599.26 Z M2058.77,598.28 C2060.57,598.05 2063.27,598.06 2064.77,598.29 C2066.27,598.51 2064.80,598.70 2061.50,598.69 C2058.20,598.68 2056.97,598.50 2058.77,598.28 Z M952.66,597.32 C952.30,596.96 952.00,502.92 952.00,388.33 L952.00,180.00 L993.50,180.00 L1035.00,180.00 L1035.00,204.31 C1035.00,223.72 1035.29,229.01 1036.42,230.56 C1037.20,231.62 1038.00,232.27 1038.20,232.00 C1046.57,220.63 1061.10,206.24 1072.29,198.25 C1077.11,194.81 1081.31,192.00 1081.62,192.00 C1081.93,192.00 1083.61,190.99 1085.35,189.75 C1087.08,188.51 1088.72,187.48 1089.00,187.45 C1089.28,187.42 1092.51,185.96 1096.19,184.21 C1148.27,159.37 1219.07,163.56 1265.11,194.21 C1280.35,204.36 1293.81,218.60 1303.64,235.00 C1309.19,244.26 1316.00,258.71 1316.00,261.23 C1316.00,262.02 1316.34,263.00 1316.75,263.42 C1317.16,263.83 1317.53,264.47 1317.57,264.83 C1317.61,265.20 1318.22,267.52 1318.92,269.98 C1323.11,284.63 1325.57,302.12 1326.94,327.00 C1327.68,340.52 1327.88,590.72 1327.15,596.73 C1327.03,597.68 1317.24,597.90 1283.50,597.73 L1240.00,597.50 L1239.93,586.50 C1239.90,580.45 1239.87,527.80 1239.87,469.50 C1239.88,374.66 1239.22,335.65 1237.48,328.00 C1237.17,326.62 1236.46,322.83 1235.91,319.57 C1235.35,316.31 1234.68,313.30 1234.42,312.87 C1234.16,312.45 1233.07,308.70 1232.01,304.55 C1229.96,296.52 1224.53,284.78 1220.21,279.00 C1215.72,273.02 1206.72,263.95 1202.28,260.96 C1195.49,256.38 1183.89,251.16 1175.38,248.85 C1164.89,246.01 1136.45,245.29 1124.79,247.56 C1084.07,255.48 1056.52,282.28 1045.15,325.00 C1039.26,347.14 1039.50,340.50 1039.78,472.00 C1039.93,538.27 1039.78,593.72 1039.45,595.21 L1038.86,597.93 L996.09,597.96 C972.56,597.97 953.02,597.69 952.66,597.32 Z M1398.25,597.25 C1397.25,596.92 1397.00,536.92 1397.00,302.91 L1397.00,8.98 L1440.66,9.24 L1484.33,9.50 L1484.37,181.75 C1484.39,276.49 1484.57,354.00 1484.78,354.00 C1485.32,354.00 1486.86,352.32 1493.94,344.00 C1497.45,339.88 1500.59,336.27 1500.92,336.00 C1502.36,334.80 1515.27,319.92 1517.28,317.15 C1519.14,314.59 1528.96,303.38 1538.45,293.00 C1541.97,289.14 1561.07,266.85 1565.00,262.02 C1566.92,259.65 1569.23,256.98 1570.13,256.10 C1571.02,255.22 1576.77,248.65 1582.89,241.50 C1589.02,234.35 1595.23,227.15 1596.69,225.50 C1598.16,223.85 1602.08,219.35 1605.40,215.50 C1608.73,211.65 1611.91,208.00 1612.47,207.40 C1613.04,206.79 1615.75,203.69 1618.50,200.51 C1621.25,197.33 1625.40,192.65 1627.72,190.11 C1630.04,187.58 1631.96,184.86 1631.97,184.08 C1631.99,183.30 1632.30,182.96 1632.66,183.33 C1633.02,183.69 1633.95,183.09 1634.72,181.99 C1636.08,180.04 1637.30,180.00 1690.09,180.00 L1744.07,180.00 L1737.43,187.75 C1731.17,195.06 1722.69,204.66 1713.41,214.96 C1711.16,217.46 1705.59,223.78 1701.03,229.00 C1696.48,234.22 1689.99,241.63 1686.62,245.45 C1672.26,261.74 1653.60,282.80 1650.19,286.57 C1648.16,288.81 1644.25,293.29 1641.50,296.51 C1638.75,299.73 1635.78,303.07 1634.90,303.93 C1634.03,304.80 1629.98,309.32 1625.92,314.00 C1621.86,318.68 1618.08,323.01 1617.52,323.63 C1614.05,327.45 1604.84,337.95 1602.86,340.33 C1601.56,341.89 1598.92,344.83 1597.00,346.87 C1590.66,353.58 1588.63,356.38 1589.80,356.77 C1590.43,356.98 1592.33,359.59 1594.04,362.57 C1595.75,365.56 1597.64,368.00 1598.24,368.00 C1598.84,368.00 1599.06,368.27 1598.73,368.61 C1598.39,368.94 1598.55,369.73 1599.07,370.36 C1602.32,374.24 1610.92,386.55 1615.52,393.88 C1620.84,402.36 1630.48,416.00 1631.15,416.00 C1631.62,416.00 1632.00,416.49 1632.00,417.09 C1632.00,417.69 1632.92,419.38 1634.04,420.84 C1635.17,422.30 1638.17,426.65 1640.72,430.50 C1643.26,434.35 1645.60,437.73 1645.92,438.00 C1646.24,438.27 1647.85,440.52 1649.50,443.00 C1651.15,445.48 1652.87,447.95 1653.31,448.50 C1653.76,449.05 1654.88,450.71 1655.81,452.19 C1658.23,456.05 1680.06,488.12 1686.32,497.00 C1691.69,504.62 1708.40,528.90 1717.50,542.31 C1720.25,546.36 1723.51,550.98 1724.75,552.59 C1725.99,554.19 1728.78,558.20 1730.94,561.50 C1733.11,564.80 1737.58,571.33 1740.89,576.00 C1744.19,580.67 1747.83,586.19 1748.97,588.25 C1750.11,590.31 1751.43,592.00 1751.90,592.00 C1752.38,592.00 1753.04,592.79 1753.38,593.75 C1753.72,594.71 1754.25,596.03 1754.56,596.67 C1754.98,597.56 1742.00,597.87 1701.22,597.95 L1647.32,598.06 L1641.89,589.78 C1638.90,585.23 1632.19,575.28 1626.98,567.67 C1621.76,560.07 1617.04,553.09 1616.49,552.17 C1614.90,549.56 1611.60,544.60 1610.70,543.50 C1610.25,542.95 1604.50,534.40 1597.91,524.50 C1591.32,514.60 1584.25,504.06 1582.21,501.09 C1580.17,498.11 1577.90,494.59 1577.17,493.28 C1576.43,491.96 1572.86,486.52 1569.23,481.19 C1553.20,457.65 1546.43,447.65 1545.49,446.13 C1540.81,438.56 1528.96,421.00 1528.53,421.00 C1527.84,421.00 1522.83,426.57 1515.06,436.00 C1511.65,440.12 1507.85,444.62 1506.60,446.00 C1505.35,447.38 1501.66,451.65 1498.39,455.50 C1495.12,459.35 1490.89,464.22 1488.98,466.32 L1485.50,470.15 L1485.00,533.82 L1484.50,597.50 L1442.00,597.58 C1418.62,597.63 1398.93,597.48 1398.25,597.25 Z M2651.50,596.74 C2651.27,596.06 2651.17,502.12 2651.29,388.00 L2651.50,180.50 L2695.25,180.24 L2739.00,179.98 L2739.01,182.74 C2739.01,184.26 2739.01,277.30 2739.01,389.50 C2739.00,501.70 2739.00,594.41 2739.00,595.53 C2739.00,597.54 2738.49,597.56 2695.47,597.77 C2661.52,597.94 2651.84,597.71 2651.50,596.74 Z M1789.31,586.50 C1789.32,583.20 1789.50,581.97 1789.72,583.77 C1789.95,585.57 1789.94,588.27 1789.71,589.77 C1789.49,591.27 1789.30,589.80 1789.31,586.50 Z M2154.39,546.00 C2154.39,539.12 2154.55,536.31 2154.74,539.75 C2154.94,543.19 2154.94,548.81 2154.74,552.25 C2154.55,555.69 2154.39,552.88 2154.39,546.00 Z M1789.37,544.50 C1789.37,539.00 1789.54,536.88 1789.74,539.78 C1789.94,542.69 1789.94,547.19 1789.73,549.78 C1789.53,552.38 1789.36,550.00 1789.37,544.50 Z M2387.50,536.04 C2403.52,533.61 2419.80,527.72 2432.48,519.74 C2448.87,509.43 2462.87,495.87 2471.48,481.94 C2474.58,476.94 2477.52,471.76 2478.03,470.42 C2478.54,469.09 2479.86,466.00 2480.97,463.56 C2485.10,454.50 2487.34,444.24 2489.04,426.69 C2490.37,412.99 2490.14,411.95 2485.76,411.28 C2484.52,411.09 2477.88,410.07 2471.00,409.01 C2437.37,403.80 2419.85,402.48 2385.50,402.55 C2354.37,402.61 2344.31,404.03 2324.00,411.21 C2306.70,417.33 2290.19,431.86 2284.98,445.54 C2279.66,459.54 2279.92,481.97 2285.54,493.60 C2286.89,496.40 2288.00,498.99 2288.00,499.35 C2288.00,500.78 2295.68,510.76 2299.94,514.88 C2313.46,527.92 2331.79,535.50 2354.00,537.23 C2361.70,537.83 2379.95,537.18 2387.50,536.04 Z M694.00,535.53 C707.90,533.13 716.85,530.26 728.76,524.39 C747.45,515.17 765.12,500.25 775.42,485.00 C781.08,476.61 785.00,469.19 785.00,466.85 C785.00,465.83 785.40,465.00 785.89,465.00 C786.65,465.00 787.83,461.94 788.12,459.25 C788.16,458.84 788.60,457.74 789.10,456.82 C789.59,455.89 790.71,451.84 791.57,447.82 C792.44,443.79 793.37,439.60 793.65,438.50 C793.92,437.40 794.40,431.23 794.71,424.79 C795.27,413.15 795.26,413.07 792.89,412.10 C790.31,411.04 750.66,405.39 740.00,404.56 C736.42,404.28 729.23,403.60 724.00,403.04 C701.52,400.66 660.41,402.54 646.00,406.63 C621.84,413.47 615.08,416.90 603.93,427.97 C598.44,433.43 592.00,442.55 592.00,444.87 C592.00,445.53 591.35,447.07 590.56,448.29 C588.52,451.43 586.65,467.13 587.27,475.99 C587.95,485.76 591.80,496.57 597.36,504.32 C602.64,511.69 612.69,521.15 617.81,523.58 C619.84,524.54 622.62,526.15 624.00,527.16 C627.40,529.65 636.77,532.86 647.00,535.05 C657.86,537.36 681.93,537.61 694.00,535.53 Z M235.50,529.98 C247.56,527.87 251.40,526.99 257.75,524.89 C261.46,523.67 264.95,522.35 265.50,521.96 C266.05,521.58 268.12,520.74 270.10,520.10 C272.07,519.47 275.90,517.51 278.60,515.76 C281.29,514.01 284.22,512.11 285.11,511.54 C292.62,506.69 295.86,504.13 301.34,498.73 C322.52,477.86 337.55,445.01 341.72,410.50 C342.63,402.90 342.66,374.29 341.76,366.92 C339.94,352.01 336.64,337.68 332.43,326.39 C331.01,322.60 329.37,318.15 328.77,316.50 C328.17,314.85 326.85,312.43 325.84,311.12 C324.83,309.80 324.00,308.10 324.00,307.32 C324.00,306.55 323.19,304.70 322.21,303.21 C321.23,301.72 319.99,299.78 319.46,298.90 C313.59,289.11 302.07,276.56 291.75,268.69 C283.87,262.68 270.50,255.04 267.83,255.01 C266.92,255.01 266.02,254.61 265.83,254.13 C265.25,252.62 248.88,247.97 238.50,246.36 C231.35,245.26 224.08,244.95 213.00,245.29 C197.84,245.74 194.81,246.21 180.50,250.22 C173.51,252.18 151.00,262.62 151.00,263.89 C151.00,264.27 149.59,265.40 147.86,266.42 C146.14,267.44 143.95,269.00 143.00,269.89 C142.05,270.77 138.90,273.52 136.01,276.00 C121.57,288.34 107.04,312.35 100.88,334.00 C100.34,335.93 99.04,340.43 98.00,344.00 C94.36,356.55 92.72,373.41 93.32,392.19 C93.62,401.71 94.16,410.85 94.52,412.50 C94.88,414.15 95.35,417.39 95.56,419.69 C96.28,427.38 100.46,441.47 107.51,460.00 C108.67,463.07 111.27,467.89 115.29,474.48 C121.07,483.95 143.38,508.00 146.38,508.00 C147.14,508.00 148.34,508.70 149.04,509.55 C151.86,512.95 172.35,523.27 180.50,525.40 C181.05,525.55 183.53,526.25 186.00,526.97 C197.62,530.35 224.16,531.96 235.50,529.98 Z M1971.75,506.27 C1974.09,506.06 1977.91,506.06 1980.25,506.27 C1982.59,506.48 1980.67,506.65 1976.00,506.65 C1971.33,506.65 1969.41,506.48 1971.75,506.27 Z M2015.79,506.26 C2019.25,506.06 2024.65,506.06 2027.79,506.26 C2030.93,506.46 2028.10,506.62 2021.50,506.62 C2014.90,506.62 2012.33,506.45 2015.79,506.26 Z M1954.45,339.06 C1956.63,336.83 1958.58,335.00 1958.80,335.00 C1959.66,335.00 1953.41,341.87 1952.00,342.47 C1951.17,342.83 1952.28,341.29 1954.45,339.06 Z M2146.17,163.00 C2146.06,160.53 2145.74,157.38 2145.46,156.00 L2144.94,153.50 L2146.02,155.96 C2146.61,157.32 2146.93,160.47 2146.73,162.96 L2146.36,167.50 L2146.17,163.00 Z M2019.71,118.91 C2017.63,116.70 2016.81,115.36 2017.89,115.94 C2019.54,116.82 2024.81,123.07 2023.82,122.97 C2023.64,122.95 2021.80,121.12 2019.71,118.91 Z M2678.00,116.66 C2667.45,112.89 2663.46,110.39 2655.76,102.74 C2650.10,97.12 2647.51,93.53 2644.18,86.69 C2640.21,78.56 2639.84,77.09 2639.30,67.65 C2638.65,56.15 2639.94,46.56 2642.99,40.25 C2644.10,37.96 2645.00,35.60 2645.00,34.99 C2645.00,32.85 2656.16,19.94 2661.29,16.16 C2675.32,5.82 2696.57,2.35 2713.00,7.71 C2727.44,12.41 2740.54,23.73 2746.32,36.49 C2750.91,46.62 2752.12,52.08 2751.92,61.88 C2751.45,85.88 2740.13,103.46 2717.99,114.57 C2710.76,118.20 2710.30,118.29 2697.55,118.63 C2685.91,118.94 2683.80,118.73 2678.00,116.66 Z M1955.26,93.28 C1956.78,93.05 1959.03,93.06 1960.26,93.30 C1961.49,93.53 1960.25,93.72 1957.50,93.71 C1954.75,93.71 1953.74,93.51 1955.26,93.28 Z"/>
  <path fill="#30b0f0" fill-rule="evenodd" d="M1791.04,598.03 C1789.80,597.26 1789.55,590.86 1789.42,555.81 C1789.34,533.09 1789.57,513.67 1789.94,512.66 C1790.67,510.67 1804.81,495.35 1820.03,480.07 C1825.28,474.81 1831.09,468.48 1832.95,466.00 C1834.81,463.52 1839.23,459.04 1842.78,456.04 C1846.32,453.04 1849.96,449.46 1850.86,448.08 C1851.76,446.70 1857.90,440.13 1864.50,433.47 C1887.04,410.75 1926.89,369.51 1929.20,366.51 C1930.46,364.87 1933.08,362.17 1935.00,360.51 C1936.92,358.85 1939.85,355.97 1941.50,354.10 C1943.15,352.24 1947.96,347.06 1952.19,342.60 C1956.42,338.15 1961.14,333.10 1962.69,331.40 C1964.23,329.69 1970.00,323.44 1975.50,317.51 C1986.14,306.03 1988.74,303.15 1993.50,297.56 C1995.15,295.63 1999.34,291.00 2002.80,287.27 C2006.27,283.55 2009.99,278.81 2011.07,276.75 C2012.15,274.69 2013.50,273.00 2014.07,273.00 C2014.64,273.00 2015.57,271.65 2016.15,270.00 C2016.73,268.35 2017.57,267.00 2018.03,267.00 C2018.49,267.00 2019.15,266.10 2019.50,264.99 C2019.85,263.89 2021.22,261.70 2022.55,260.12 C2025.38,256.76 2031.52,246.12 2032.54,242.80 C2032.93,241.54 2034.74,237.35 2036.55,233.50 C2038.36,229.65 2040.58,223.35 2041.48,219.50 C2045.07,204.09 2046.34,177.32 2043.96,167.50 C2042.90,163.15 2038.62,149.05 2036.29,142.24 C2035.48,139.90 2033.40,136.21 2031.66,134.04 C2029.92,131.86 2026.92,127.59 2025.00,124.54 C2021.39,118.82 2013.07,110.90 2007.61,107.98 C2005.90,107.07 2001.58,104.87 1998.00,103.10 C1994.42,101.32 1990.15,99.18 1988.50,98.33 C1983.41,95.72 1960.00,92.65 1951.55,93.48 C1938.37,94.79 1922.48,98.95 1916.75,102.61 C1903.66,110.95 1903.30,111.21 1898.61,115.50 C1896.81,117.15 1894.47,119.24 1893.42,120.14 C1891.54,121.74 1889.99,123.66 1887.00,128.06 C1886.17,129.28 1884.56,131.45 1883.41,132.89 C1877.03,140.87 1868.00,159.02 1868.00,163.86 C1868.00,164.85 1866.87,166.72 1865.48,168.02 L1862.96,170.38 L1858.46,168.19 C1855.98,166.99 1853.46,166.00 1852.87,166.00 C1852.28,166.00 1849.48,164.83 1846.65,163.39 C1840.61,160.33 1824.54,154.02 1821.13,153.37 C1819.82,153.12 1817.12,152.09 1815.13,151.08 C1813.13,150.07 1810.11,148.94 1808.41,148.58 C1806.71,148.21 1802.96,146.36 1800.07,144.46 C1797.19,142.56 1794.61,141.00 1794.35,141.00 C1793.26,141.00 1780.45,134.54 1779.87,133.70 C1779.53,133.19 1779.92,130.24 1780.75,127.14 C1781.57,124.04 1782.33,120.83 1782.43,120.00 C1783.11,114.37 1787.79,103.09 1793.00,94.50 C1794.67,91.75 1796.51,88.38 1797.09,87.00 C1797.66,85.63 1799.17,83.16 1800.42,81.50 C1801.68,79.85 1803.02,77.51 1803.41,76.30 C1803.79,75.09 1804.87,73.84 1805.80,73.53 C1806.74,73.21 1808.96,71.05 1810.75,68.73 C1812.54,66.40 1816.47,61.80 1819.48,58.50 C1822.50,55.20 1824.97,52.16 1824.98,51.75 C1824.99,51.34 1825.57,51.00 1826.26,51.00 C1826.95,51.00 1829.94,48.75 1832.90,46.00 C1835.86,43.25 1838.57,41.00 1838.92,41.00 C1839.27,41.00 1840.93,39.76 1842.62,38.25 C1847.43,33.93 1851.79,31.00 1853.38,31.00 C1854.18,31.00 1854.98,30.60 1855.17,30.12 C1856.00,27.90 1884.64,14.92 1891.70,13.56 C1892.69,13.36 1899.58,11.63 1907.00,9.71 C1926.56,4.65 1932.62,3.87 1954.16,3.68 C1979.21,3.45 1996.42,4.98 2008.50,8.51 C2022.83,12.70 2031.86,15.21 2035.03,15.89 C2036.97,16.31 2041.19,17.85 2044.40,19.33 C2047.61,20.80 2050.72,22.00 2051.31,22.00 C2051.89,22.00 2053.30,22.83 2054.44,23.84 C2055.57,24.85 2058.07,26.27 2060.00,26.99 C2061.93,27.72 2063.96,28.80 2064.52,29.40 C2065.08,30.01 2067.71,31.67 2070.37,33.10 C2075.18,35.69 2079.00,38.68 2087.82,46.75 C2090.38,49.09 2092.83,51.00 2093.27,51.00 C2094.37,51.00 2104.00,60.86 2104.00,61.98 C2104.00,62.48 2104.90,63.51 2105.99,64.28 C2107.09,65.05 2107.78,65.89 2107.52,66.15 C2107.26,66.41 2109.28,69.01 2112.02,71.93 C2114.76,74.84 2117.00,77.70 2117.00,78.27 C2117.00,78.84 2118.12,80.79 2119.50,82.59 C2120.88,84.39 2122.01,86.23 2122.02,86.68 C2122.03,87.13 2122.92,88.62 2124.00,90.00 C2125.08,91.38 2125.97,93.04 2125.98,93.70 C2125.99,94.36 2127.57,97.51 2129.50,100.70 C2131.42,103.89 2133.00,107.42 2133.00,108.55 C2133.00,109.68 2133.41,111.03 2133.91,111.55 C2134.96,112.65 2138.48,124.16 2141.08,135.00 C2142.07,139.12 2143.35,144.30 2143.93,146.50 C2146.54,156.54 2148.03,208.25 2145.81,212.32 C2145.16,213.52 2144.28,216.75 2143.86,219.50 C2140.82,239.32 2137.72,251.77 2133.33,261.71 C2130.29,268.60 2119.92,290.47 2118.96,292.00 C2118.45,292.82 2117.28,294.85 2116.36,296.50 C2115.44,298.15 2112.62,302.28 2110.10,305.68 C2107.57,309.09 2104.15,314.23 2102.50,317.12 C2100.85,320.00 2097.24,324.87 2094.47,327.93 C2087.34,335.82 2080.00,344.71 2080.00,345.45 C2080.00,346.23 2078.10,348.59 2075.67,350.82 C2074.67,351.74 2070.01,356.77 2065.32,362.00 C2051.27,377.67 2034.33,395.25 1942.07,489.90 C1933.81,498.36 1927.24,505.58 1927.46,505.94 C1927.68,506.29 1978.12,506.55 2039.54,506.51 C2114.74,506.46 2151.65,506.78 2152.53,507.47 C2153.57,508.29 2153.91,517.74 2154.17,552.79 C2154.46,591.00 2154.30,597.20 2153.02,597.99 C2151.05,599.20 1793.00,599.24 1791.04,598.03 Z"/>
</svg>
